<?xml version="1.0" encoding="UTF-8" standalone="no"?><!DOCTYPE svg PUBLIC "-//W3C//DTD SVG 1.1//EN" "http://www.w3.org/Graphics/SVG/1.1/DTD/svg11.dtd"><svg width="100%" height="100%" viewBox="0 0 1000 1000" version="1.1" xmlns="http://www.w3.org/2000/svg" xmlns:xlink="http://www.w3.org/1999/xlink" xml:space="preserve" xmlns:serif="http://www.serif.com/" style="fill-rule:evenodd;clip-rule:evenodd;stroke-linejoin:round;stroke-miterlimit:2;"><rect id="Artboard1" x="0" y="0" width="1000" height="1000" style="fill:none;"/><clipPath id="_clip1"><rect id="Artboard11" serif:id="Artboard1" x="0" y="0" width="1000" height="1000"/></clipPath><g clip-path="url(#_clip1)"><path d="M450,450l0,-400c-0,-27.596 22.404,-50 50,-50c27.596,-0 50,22.404 50,50l0,400l400,0c27.596,-0 50,22.404 50,50c0,27.596 -22.404,50 -50,50l-400,0l0,400c-0,27.596 -22.404,50 -50,50c-27.596,-0 -50,-22.404 -50,-50l0,-400l-400,0c-27.596,-0 -50,-22.404 -50,-50c0,-27.596 22.404,-50 50,-50l400,0Z"/><path d="M404.494,404.494l0,-308.989c-0,-52.711 42.795,-95.506 95.506,-95.506c52.711,-0 95.506,42.795 95.506,95.506l0,308.989l308.989,0c52.711,-0 95.506,42.795 95.506,95.506c0,52.711 -42.795,95.506 -95.506,95.506l-308.989,0l0,308.989c-0,52.711 -42.795,95.506 -95.506,95.506c-52.711,-0 -95.506,-42.795 -95.506,-95.506l-0,-308.989l-308.989,0c-52.711,-0 -95.506,-42.795 -95.506,-95.506c0,-52.711 42.795,-95.506 95.506,-95.506l308.989,-0Zm73.748,95.506c9.315,4.815 16.942,12.442 21.757,21.757c4.815,-9.315 12.442,-16.942 21.757,-21.757c-9.315,-4.815 -16.942,-12.442 -21.757,-21.757c-4.815,9.315 -12.442,16.942 -21.757,21.757Z"/></g></svg>