<?xml version="1.0" encoding="UTF-8" standalone="no"?><!DOCTYPE svg PUBLIC "-//W3C//DTD SVG 1.1//EN" "http://www.w3.org/Graphics/SVG/1.1/DTD/svg11.dtd"><svg width="100%" height="100%" viewBox="0 0 1000 1000" version="1.1" xmlns="http://www.w3.org/2000/svg" xmlns:xlink="http://www.w3.org/1999/xlink" xml:space="preserve" xmlns:serif="http://www.serif.com/" style="fill-rule:evenodd;clip-rule:evenodd;stroke-linejoin:round;stroke-miterlimit:2;"><rect id="Artboard1" x="0" y="0" width="1000" height="1000" style="fill:none;"/><clipPath id="_clip1"><rect x="0" y="0" width="1000" height="1000"/></clipPath><g clip-path="url(#_clip1)"><path d="M511.583,177.68l383.395,366.395c3.29,3.147 5.151,7.509 5.146,12.062l0,343.874c0,36.572 -30.094,66.667 -66.667,66.667l-200.125,0c-18.286,0 -33.333,-15.047 -33.333,-33.333l0,-283.333c0,-9.143 -7.524,-16.667 -16.667,-16.667l-166.666,0c-9.143,0 -16.667,7.524 -16.667,16.667l0,283.333c0,18.286 -15.047,33.333 -33.333,33.333l-200.208,0c-36.572,0 -66.667,-30.094 -66.667,-66.667l0.062,-343.874c-0.005,-4.553 1.856,-8.915 5.146,-12.062l383.541,-366.395c6.406,-6.127 16.636,-6.127 23.042,0Zm477.811,297.645c13.312,12.729 14.375,34.604 1.583,47.854c-12.67,13.134 -33.891,13.548 -47.062,0.917l-432.332,-413.082c-6.406,-6.127 -16.636,-6.127 -23.042,0l-432.291,413.082c-6.207,5.965 -14.489,9.299 -23.097,9.299c-9.664,0 -18.866,-4.203 -25.194,-11.508c-11.792,-13.542 -10.167,-34.104 2.792,-46.604l443.124,-423.957c11.292,-11.437 28.042,-17.979 46.125,-17.979c18.146,0 34.937,6.542 46.229,17.958l120.666,115.375l0,-66.667c0,-18.286 15.047,-33.333 33.333,-33.333l100,0c18.286,0 33.333,15.047 33.333,33.333l0,226.229l155.833,149.083Z"/></g></svg>