<?xml version="1.0" encoding="UTF-8" standalone="no"?><!DOCTYPE svg PUBLIC "-//W3C//DTD SVG 1.1//EN" "http://www.w3.org/Graphics/SVG/1.1/DTD/svg11.dtd"><svg width="100%" height="100%" viewBox="0 0 1000 1000" version="1.1" xmlns="http://www.w3.org/2000/svg" xmlns:xlink="http://www.w3.org/1999/xlink" xml:space="preserve" xmlns:serif="http://www.serif.com/" style="fill-rule:evenodd;clip-rule:evenodd;stroke-linejoin:round;stroke-miterlimit:2;"><rect id="Artboard1" x="0" y="0" width="1000" height="1000" style="fill:none;"/><clipPath id="_clip1"><rect x="0" y="0" width="1000" height="1000"/></clipPath><g clip-path="url(#_clip1)"><path d="M966.065,595.652c21.789,18.151 27.244,49.745 12.804,74.152l-92.848,160.63c-0.102,0.155 -0.197,0.314 -0.283,0.478c-14.431,24.1 -44.314,34.533 -70.609,24.652l-0.761,-0.304l-80.717,-32.5c-10.286,-4.162 -21.969,-3.134 -31.37,2.761c-7.043,4.413 -14.304,8.652 -21.739,12.652c-9.651,5.267 -16.254,14.808 -17.783,25.696l-12.109,86.239l-0.196,1.217c-4.768,27.929 -29.167,48.583 -57.5,48.674l-185.913,0c-27.955,-0.225 -52.123,-20.231 -57.565,-47.652l-0.261,-1.565l-12.087,-86.065c-1.513,-10.899 -8.131,-20.45 -17.804,-25.696c-7.362,-3.986 -14.609,-8.232 -21.739,-12.739c-9.418,-5.931 -21.138,-6.976 -31.457,-2.804l-80.587,32.457l-0.761,0.283c-26.257,9.851 -56.085,-0.536 -70.543,-24.565c-0.081,-0.167 -0.176,-0.327 -0.283,-0.478l-92.848,-160.652c-14.392,-24.384 -8.929,-55.921 12.826,-74.043l1.022,-0.826l68.587,-53.826c8.776,-6.887 13.724,-17.592 13.283,-28.739l0,-25.13c0.485,-11.218 -4.454,-22.012 -13.261,-28.978l-68.609,-53.804l-1.022,-0.826c-21.777,-18.148 -27.239,-49.721 -12.826,-74.13l92.978,-160.761l0.283,-0.478c14.443,-24.086 44.313,-34.514 70.609,-24.652l0.761,0.304l80.717,32.609c10.286,4.162 21.969,3.134 31.37,-2.761c7.105,-4.456 14.355,-8.675 21.739,-12.652c9.609,-5.292 16.169,-14.83 17.674,-25.696l12.109,-86.239l0.196,-1.217c4.768,-27.929 29.167,-48.583 57.5,-48.674l185.913,-0c27.907,0.286 52.002,20.278 57.435,47.652l0.261,1.565l12.152,86.065c1.513,10.899 8.131,20.45 17.804,25.696c7.362,4 14.609,8.246 21.739,12.739c9.418,5.931 21.138,6.976 31.457,2.804l80.652,-32.457l0.761,-0.283c26.257,-9.851 56.085,0.536 70.543,24.565c0.081,0.167 0.176,0.327 0.283,0.478l92.848,160.652c14.392,24.384 8.929,55.921 -12.826,74.043l-1.022,0.826l-68.587,53.826c-8.776,6.887 -13.724,17.592 -13.283,28.739l0,25.13c-0.485,11.218 4.454,22.012 13.261,28.978l68.609,53.804l1.022,0.826Zm-292.348,-87.478c0.113,-2.562 0.17,-5.126 0.17,-7.69c0,-95.656 -78.713,-174.37 -174.37,-174.37c-2.557,0 -5.115,0.056 -7.67,0.169c-92.232,4.326 -165.765,81.388 -165.765,173.722c0,95.406 78.507,173.913 173.913,173.913c92.326,0 169.384,-73.52 173.721,-165.744Zm-173.717,-112.522c57.591,0 104.348,46.757 104.348,104.348c0,57.591 -46.757,104.348 -104.348,104.348c-57.591,0 -104.348,-46.757 -104.348,-104.348c0,-57.591 46.757,-104.348 104.348,-104.348Z"/></g></svg>